PathFileType	4	(X/Y/Z)	8_coords_data.trc
DataRate	CameraRate	NumFrames	NumMarkers	Units	OrigDataRate	OrigDataStartFrame	OrigNumFrames
30.0	30.0	4	21	m	30.0	10	48
Frame#	Time	THUMB_TIP	THUMB_IP	THUMB_MCP	THUMB_CMC	INDEX_TIP	INDEX_DIP	INDEX_PIP	INDEX_MCP	MIDDLE_TIP	MIDDLE_DIP	MIDDLE_PIP	MIDDLE_MCP	RING_TIP	RING_DIP	RING_PIP	RING_MCP	PINKY_TIP	PINKY_DIP	PINKY_PIP	PINKY_MCP	WRIST
X1	Y1	Z1	X2	Y2	Z2	X3	Y3	Z3	X4	Y4	Z4	X5	Y5	Z5	X6	Y6	Z6	X7	Y7	Z7	X8	Y8	Z8	X9	Y9	Z9	X10	Y10	Z10	X11	Y11	Z11	X12	Y12	Z12	X13	Y13	Z13	X14	Y14	Z14	X15	Y15	Z15	X16	Y16	Z16	X17	Y17	Z17	X18	Y18	Z18	X19	Y19	Z19	X20	Y20	Z20	X21	Y21	Z21
8	0.2999999999999987	0.555863373366361	-0.011372876915505259	-0.11762262764315456	0.5329106934532968	-0.01075267347610176	-0.11851135285499936	0.5035313778033258	-0.005848351371484428	-0.10947678387615306	0.47572690421944763	-0.013574598506760238	-0.07546051785637853	0.5603456799968863	0.025121272408883177	-0.1607147491125271	0.5483454465412306	0.025993789319522564	-0.1471783865564188	0.5332128153296517	0.03095450955557555	-0.12772576307386613	0.509803471323192	0.03423133452910743	-0.09230117944497823	0.49741397564546797	-0.006248803052059659	-0.09513049476608432	0.5124113966035404	-0.0068767339226766255	-0.10526376015430411	0.5372218141080898	0.007247961136640724	-0.11112428254836176	0.5212750610748524	0.028309153007755827	-0.07509269660401269	0.5103373537066672	-0.021578357880603694	-0.09344305299166428	0.5253326206368382	-0.014369457161338306	-0.10038378206811593	0.5474272591903597	-0.00296965873573396	-0.09895146853930054	0.5316572077609439	0.014432900910402502	-0.0660398105792972	0.5948549257354052	0.0014193396079283938	-0.10323749257299936	0.5809986696481769	0.00020344433770447257	-0.09326123245525003	0.563571248132514	-0.0006763793638343563	-0.0815854922830116	0.5328024463397385	-0.004011064791934693	-0.06306404092701606	0.4622830810018609	-0.023011742144276925	-0.051989820119430985
9	0.33333333333333187	0.5559491479343931	-0.011081376045122604	-0.11741410609207648	0.5329965218172765	-0.010548876522484818	-0.11835930373609288	0.5035964024753123	-0.005668926004384733	-0.1093793780337744	0.47577143072056144	-0.01349475417079038	-0.07540266011757185	0.5604698388495183	0.025397758986945962	-0.16041477417024774	0.5484477229682487	0.02625313011239505	-0.1468967465783586	0.5332621710895462	0.031169839385183473	-0.12747421283360455	0.5097729350664061	0.03439903054976856	-0.09209817278568816	0.49744536467350764	-0.00610405400649372	-0.0950023564145775	0.5124562701349451	-0.006689932291631395	-0.1051181590946812	0.5372681068814621	0.007462826916117882	-0.11090449766684007	0.5212209023186959	0.02846506660598469	-0.07488310021018768	0.5103050469897414	-0.0213626936006569	-0.0933368851904991	0.525282249831508	-0.01402742310865901	-0.10018357795750793	0.5474291385964014	-0.0027309536068400586	-0.0987395994847089	0.5316044657886894	0.014611155752861649	-0.06582225136118885	0.5949419386911301	0.0016585238817797832	-0.1028926336935514	0.5810723264386979	0.00044872253028327425	-0.09293420828302107	0.5636263292245445	-0.0004263917811664353	-0.08128588758235133	0.5327813708949678	-0.003842425372100222	-0.06290647760400075	0.4622830810018609	-0.023011742144276925	-0.051989820119430985
10	0.3666666666666651	0.5560628239809816	-0.010870185031707558	-0.11713849087227718	0.533113617351583	-0.010370975010606132	-0.11817998232015442	0.5036892836108606	-0.005510959333866583	-0.10926881901021396	0.47581843727212936	-0.01344299950813943	-0.07535438752394907	0.5606963183145085	0.025638008222535813	-0.1600812035915855	0.5486366807481924	0.026467608267730647	-0.14659502898445143	0.5333869309582484	0.03134144991690224	-0.12721203045680085	0.5098030203320192	0.034516222123323614	-0.09189410193584463	0.49751045781702696	-0.0060991815506944436	-0.09490389648495362	0.5125678250903125	-0.0065944638840989	-0.10495528376271812	0.5373694383665971	0.007612616918154624	-0.11065163206420642	0.521211761780714	0.028575579941408247	-0.07465674923856419	0.5103457569185639	-0.021187296628203955	-0.09315744827285383	0.525353344723583	-0.013806592424249753	-0.09988779103740741	0.547515043751522	-0.0025326504474325606	-0.09849591909703126	0.5315893660764	0.01472587410769488	-0.06558335379488278	0.5950865710439174	0.0017611128769298157	-0.10247426743904359	0.5811891153334593	0.0005621290884985086	-0.09255342258334032	0.5637099891092685	-0.0003084718952639509	-0.08095453387080082	0.5327828197608845	-0.0037409957311561604	-0.06271689621642212	0.4622830810018609	-0.023011742144276925	-0.051989820119430985
11	0.39999999999999825	0.5562011757716263	-0.01063581359183241	-0.11686246343793938	0.5332536729204582	-0.01023440387562069	-0.11798093701177109	0.5038090459990019	-0.00536840401890748	-0.10914034931350552	0.47587188233884553	-0.013390517235833288	-0.0753017532114143	0.560921817944333	0.02588830340461723	-0.159723823073603	0.5488276084826068	0.026685075319192175	-0.1462666594789952	0.5335118919806422	0.031502959380022566	-0.12692172075570518	0.5098596450620172	0.03464070397361707	-0.09164620703066118	0.4975834640507667	-0.006001789486983489	-0.09475464244848275	0.5126744551922859	-0.006501643992234074	-0.10475524902209465	0.5374654620954668	0.00775130179658956	-0.11038277628256099	0.5212225038655975	0.02867411876955317	-0.07440292137931565	0.510469837933081	-0.021125529180743396	-0.09308538695739899	0.5255139312367928	-0.013784447895963114	-0.09977745556429962	0.5475866617006394	-0.002354600183640976	-0.09824999684357899	0.5315926146181872	0.014812729692497362	-0.065322894376946	0.5952366017108983	0.0018869785668398364	-0.1020441960283407	0.5813093083620071	0.0006809006462051848	-0.0921661458146959	0.563797968229539	-0.0001805504414832404	-0.08061526326016644	0.5327894250606879	-0.0036595846714415625	-0.06252521012668233	0.46228308100186083	-0.023011742144276925	-0.051989820119430985
